{"title":"Bubble Gum (2011) Hindi - Flim - HQRip x264 AAC [ TaRa ].mkv","uid":15227868,"size":314021267,"categoryP":"video","categoryS":"movies","magnet":"?xt=urn:btih:f812f8a4786cce804870e750fac024aff5409df5&amp;dn=Bubble+Gum+%282011%29+Hindi+-+Flim+-+HQRip+x264+AAC+%5B+TaRa+%5D.mkv&amp;tr=udp%3A%2F%2Ftracker.leechers-paradise.org%3A6969&amp;tr=udp%3A%2F%2Fzer0day.ch%3A1337&amp;tr=udp%3A%2F%2Fopen.demonii.com%3A1337&amp;tr=udp%3A%2F%2Ftracker.coppersurfer.tk%3A6969&amp;tr=udp%3A%2F%2Fexodus.desync.com%3A6969","seeders":0,"leechers":1,"uploader":"MdTaRa","files":1,"time":1467786875,"description":"===================================================================\r\nGeneral\r\nComplete name               : Bubble Gum (2011) Hindi - Flim - HQRip x264 AAC [ TaRa ].mkv\r\nFormat                      : Matroska\r\nFormat version              : Version 4 / Version 2\r\nFile size                   : 299 MiB\r\nDuration                    : 1h 53mn\r\nOverall bit rate            : 369 Kbps\r\n===================================================================\r\nVideo\r\nID                          : 1\r\nFormat                      : AVC\r\nFormat/Info                 : Advanced Video Codec\r\nFormat profile              :   \r\nFormat settings, CABAC      : Yes\r\nFormat settings, ReFrames   : 16 frames\r\nCodec ID                    : V_MPEG4/ISO/AVC\r\nDuration                    : 1h 53mn\r\nBit rate                    : 337 Kbps\r\nWidth                       : 720 pixels\r\nHeight                      : 304 pixels\r\nDisplay aspect ratio        : 2.35:1\r\nFrame rate mode             : Constant\r\nFrame rate                  : 24.000 fps\r\nColor space                 : YUV\r\nChroma subsampling          : 4:2:0\r\nBit depth                   : 8 bits\r\nScan type                   : Progressive\r\nBits/(Pixel*Frame)          : 0.064\r\nStream size                 : 272 MiB (91%)\r\nTitle                       : .....::::: TaRa :::::.....\r\nLanguage                    : Hindi\r\nDefault                     : Yes\r\nForced                      : No\r\n===================================================================\r\nAudio\r\nID                          : 2\r\nFormat                      : AAC\r\nFormat/Info                 : Advanced Audio Codec\r\nFormat profile              : HE-AAC / LC\r\nCodec ID                    : A_AAC\r\nDuration                    : 1h 53mn\r\nBit rate                    : 32.0 Kbps\r\nChannel(s)                  : 2 channels\r\nChannel positions           : Front: L R\r\nSampling rate               : 22.05 KHz / 11.025 KHz\r\nFrame rate                  : 10.767 fps (1024 spf)\r\nCompression mode            : Lossy\r\nDelay relative to video     : 67ms\r\nStream size                 : 25.9 MiB (9%)\r\nTitle                       : .....::::: TaRa :::::.....\r\nLanguage                    : Hindi\r\nDefault                     : Yes\r\nForced                      : No\r\n=================================================================== \nhttps://picoolio.net/image/IJf6","torrent":{"xt":"urn:btih:f812f8a4786cce804870e750fac024aff5409df5","amp;dn":"Bubble+Gum+%282011%29+Hindi+-+Flim+-+HQRip+x264+AAC+%5B+TaRa+%5D.mkv","amp;tr":["udp%3A%2F%2Ftracker.leechers-paradise.org%3A6969","udp%3A%2F%2Fzer0day.ch%3A1337","udp%3A%2F%2Fopen.demonii.com%3A1337","udp%3A%2F%2Ftracker.coppersurfer.tk%3A6969","udp%3A%2F%2Fexodus.desync.com%3A6969"],"infoHash":"f812f8a4786cce804870e750fac024aff5409df5","infoHashBuffer":{"type":"Buffer","data":[248,18,248,164,120,108,206,128,72,112,231,80,250,192,36,175,245,64,157,245]},"announce":[],"urlList":[]}}